<svg width="172" height="69" viewBox="0 0 172 69" fill="none" xmlns="http://www.w3.org/2000/svg">
<path d="M0.83984 1.33448C0.431259 1.40256 0.15522 1.78896 0.223293 2.19754L1.33262 8.85577C1.40069 9.26435 1.7871 9.54038 2.19568 9.47231C2.60426 9.40424 2.8803 9.01783 2.81223 8.60925L1.82616 2.69083L7.74457 1.70477C8.15315 1.63669 8.42919 1.25029 8.36112 0.841705C8.29304 0.433121 7.90664 0.157086 7.49806 0.225159L0.83984 1.33448ZM171.287 57.2814C119.166 72.8022 89.535 67.9218 66.5827 54.7469C55.071 48.1391 45.202 39.4245 34.982 30.0384C24.7757 20.665 14.2216 10.624 1.39906 1.46401L0.527131 2.68456C13.2575 11.7788 23.7347 21.7455 33.9673 31.1432C44.1862 40.5281 54.1639 49.3479 65.8359 56.0478C89.251 69.4884 119.336 74.3167 171.715 58.719L171.287 57.2814Z" fill="url(#paint0_linear_713_501)"/>
<defs>
<linearGradient id="paint0_linear_713_501" x1="-0.866723" y1="11.8032" x2="155.565" y2="46.5651" gradientUnits="userSpaceOnUse">
<stop stop-color="white"/>
<stop offset="0.834377" stop-color="#0B090A"/>
</linearGradient>
</defs>
</svg>
