<svg width="53" height="14" viewBox="0 0 53 14" fill="none" xmlns="http://www.w3.org/2000/svg">
<path d="M5.888 12.256C4.29867 12.256 3.008 11.7173 2.016 10.64C1.01333 9.57333 0.512 8.128 0.512 6.304C0.512 4.49067 1.008 3.04533 2 1.968C2.992 0.890666 4.288 0.351999 5.888 0.351999C7.14667 0.351999 8.22933 0.687999 9.136 1.36C10.0427 2.04267 10.624 3.05067 10.88 4.384H9.152C8.93867 3.552 8.544 2.928 7.968 2.512C7.40267 2.08533 6.70933 1.872 5.888 1.872C4.78933 1.872 3.91467 2.272 3.264 3.072C2.61333 3.86133 2.288 4.93867 2.288 6.304C2.288 7.66933 2.61333 8.752 3.264 9.552C3.91467 10.3413 4.78933 10.736 5.888 10.736C6.70933 10.736 7.44533 10.4853 8.096 9.984C8.72533 9.48267 9.104 8.752 9.232 7.792H10.944C10.8053 9.21067 10.256 10.3093 9.296 11.088C8.34667 11.8667 7.21067 12.256 5.888 12.256ZM18.6386 11.008C17.8813 11.7973 16.8946 12.192 15.6786 12.192C14.4626 12.192 13.476 11.7973 12.7186 11.008C11.9613 10.2187 11.5826 9.17333 11.5826 7.872C11.5826 6.56 11.9613 5.50933 12.7186 4.72C13.4653 3.94133 14.452 3.552 15.6786 3.552C16.9053 3.552 17.892 3.94133 18.6386 4.72C19.3853 5.49867 19.7586 6.54933 19.7586 7.872C19.7586 9.184 19.3853 10.2293 18.6386 11.008ZM13.9026 10.032C14.34 10.5547 14.932 10.816 15.6786 10.816C16.4253 10.816 17.012 10.5547 17.4386 10.032C17.876 9.50933 18.0946 8.78933 18.0946 7.872C18.0946 6.95467 17.876 6.23467 17.4386 5.712C17.012 5.18933 16.4253 4.928 15.6786 4.928C14.932 4.928 14.34 5.18933 13.9026 5.712C13.4653 6.23467 13.2466 6.95467 13.2466 7.872C13.2466 8.78933 13.4653 9.50933 13.9026 10.032ZM26.9138 4.864V0.608H28.5138V12H26.9778V10.784C26.3591 11.7227 25.4471 12.192 24.2418 12.192C23.0898 12.192 22.1724 11.8027 21.4898 11.024C20.8071 10.2453 20.4658 9.19467 20.4658 7.872C20.4658 6.54933 20.8071 5.49867 21.4898 4.72C22.1724 3.94133 23.0898 3.552 24.2418 3.552C25.4044 3.552 26.2951 3.98933 26.9138 4.864ZM22.1298 7.936C22.1298 8.85333 22.3484 9.56267 22.7858 10.064C23.2231 10.5653 23.8098 10.816 24.5458 10.816C25.3031 10.816 25.8951 10.5547 26.3218 10.032C26.7484 9.53067 26.9618 8.81067 26.9618 7.872C26.9618 6.944 26.7484 6.21867 26.3218 5.696C25.8951 5.184 25.3031 4.928 24.5458 4.928C23.8098 4.928 23.2231 5.19467 22.7858 5.728C22.3484 6.26133 22.1298 6.99733 22.1298 7.936ZM37.4545 7.936V8.4H31.2305C31.3052 9.21067 31.5452 9.824 31.9505 10.24C32.3558 10.6453 32.9052 10.848 33.5985 10.848C34.6438 10.848 35.3265 10.3893 35.6465 9.472H37.2625C37.0385 10.3147 36.6012 10.9813 35.9505 11.472C35.3105 11.952 34.5158 12.192 33.5665 12.192C32.3825 12.192 31.4278 11.7973 30.7025 11.008C29.9772 10.2187 29.6145 9.17333 29.6145 7.872C29.6145 6.57067 29.9772 5.52533 30.7025 4.736C31.4278 3.94667 32.3718 3.552 33.5345 3.552C34.7505 3.552 35.7105 3.96267 36.4145 4.784C37.1078 5.60533 37.4545 6.656 37.4545 7.936ZM33.5345 4.896C32.9052 4.896 32.3878 5.088 31.9825 5.472C31.5878 5.856 31.3425 6.41067 31.2465 7.136H35.8065C35.7318 6.464 35.4918 5.92533 35.0865 5.52C34.6918 5.104 34.1745 4.896 33.5345 4.896ZM40.2678 12H38.5558V0.608H40.2678V12ZM52.5789 6.304C52.5789 8.11733 52.0615 9.56267 51.0269 10.64L52.4509 12.16L51.4909 13.088L49.9869 11.488C49.1229 12 48.1362 12.256 47.0269 12.256C45.3415 12.256 43.9975 11.7067 42.9949 10.608C41.9709 9.52 41.4589 8.08533 41.4589 6.304C41.4589 4.53333 41.9709 3.09333 42.9949 1.984C43.9975 0.895999 45.3415 0.351999 47.0269 0.351999C48.6909 0.351999 50.0349 0.895999 51.0589 1.984C52.0722 3.09333 52.5789 4.53333 52.5789 6.304ZM47.0269 10.72C47.7095 10.72 48.3175 10.5707 48.8509 10.272L47.4749 8.8L48.4189 7.872L49.8589 9.408C50.4882 8.61867 50.8029 7.584 50.8029 6.304C50.8029 4.93867 50.4615 3.86133 49.7789 3.072C49.0855 2.28267 48.1682 1.888 47.0269 1.888C45.8855 1.888 44.9682 2.28267 44.2749 3.072C43.5815 3.88267 43.2349 4.96 43.2349 6.304C43.2349 7.65867 43.5815 8.73067 44.2749 9.52C44.9575 10.32 45.8749 10.72 47.0269 10.72Z" fill="#FBFF48"/>
</svg>
